<svg width="900" height="900" viewBox="0 0 900 900" fill="none" xmlns="http://www.w3.org/2000/svg">
<line x1="303" y1="3" x2="303" y2="897" stroke="white" stroke-width="6" stroke-linecap="round"/>
<line x1="897" y1="303" x2="3" y2="303" stroke="white" stroke-width="6" stroke-linecap="round"/>
<line x1="897" y1="603" x2="3" y2="603" stroke="white" stroke-width="6" stroke-linecap="round"/>
<line x1="603" y1="3" x2="603" y2="897" stroke="white" stroke-width="6" stroke-linecap="round"/>
<line x1="102.5" y1="2.5" x2="102.5" y2="297.5" stroke="#aaaaaa" stroke-width="5" stroke-linecap="round"/>
<line x1="2.5" y1="97.5" x2="297.5" y2="97.5" stroke="#aaaaaa" stroke-width="5" stroke-linecap="round"/>
<line x1="2.5" y1="197.5" x2="297.5" y2="197.5" stroke="#aaaaaa" stroke-width="5" stroke-linecap="round"/>
<line x1="2.5" y1="397.5" x2="297.5" y2="397.5" stroke="#aaaaaa" stroke-width="5" stroke-linecap="round"/>
<line x1="2.5" y1="497.5" x2="297.5" y2="497.5" stroke="#aaaaaa" stroke-width="5" stroke-linecap="round"/>
<line x1="2.5" y1="697.5" x2="297.5" y2="697.5" stroke="#aaaaaa" stroke-width="5" stroke-linecap="round"/>
<line x1="2.5" y1="797.5" x2="297.5" y2="797.5" stroke="#aaaaaa" stroke-width="5" stroke-linecap="round"/>
<line x1="202.5" y1="2.5" x2="202.5" y2="297.5" stroke="#aaaaaa" stroke-width="5" stroke-linecap="round"/>
<line x1="402.5" y1="2.5" x2="402.5" y2="297.5" stroke="#aaaaaa" stroke-width="5" stroke-linecap="round"/>
<line x1="502.5" y1="2.5" x2="502.5" y2="297.5" stroke="#aaaaaa" stroke-width="5" stroke-linecap="round"/>
<line x1="702.5" y1="2.5" x2="702.5" y2="297.5" stroke="#aaaaaa" stroke-width="5" stroke-linecap="round"/>
<line x1="802.5" y1="2.5" x2="802.5" y2="297.5" stroke="#aaaaaa" stroke-width="5" stroke-linecap="round"/>
<line x1="102.5" y1="302.5" x2="102.5" y2="597.5" stroke="#aaaaaa" stroke-width="5" stroke-linecap="round"/>
<line x1="202.5" y1="302.5" x2="202.5" y2="597.5" stroke="#aaaaaa" stroke-width="5" stroke-linecap="round"/>
<line x1="402.5" y1="302.5" x2="402.5" y2="597.5" stroke="#aaaaaa" stroke-width="5" stroke-linecap="round"/>
<line x1="502.5" y1="302.5" x2="502.5" y2="597.5" stroke="#aaaaaa" stroke-width="5" stroke-linecap="round"/>
<line x1="702.5" y1="302.5" x2="702.5" y2="597.5" stroke="#aaaaaa" stroke-width="5" stroke-linecap="round"/>
<line x1="802.5" y1="302.5" x2="802.5" y2="597.5" stroke="#aaaaaa" stroke-width="5" stroke-linecap="round"/>
<line x1="102.5" y1="602.5" x2="102.5" y2="897.5" stroke="#aaaaaa" stroke-width="5" stroke-linecap="round"/>
<line x1="402.5" y1="2.5" x2="402.5" y2="297.5" stroke="#aaaaaa" stroke-width="5" stroke-linecap="round"/>
<line x1="302.5" y1="97.5" x2="597.5" y2="97.5" stroke="#aaaaaa" stroke-width="5" stroke-linecap="round"/>
<line x1="302.5" y1="197.5" x2="597.5" y2="197.5" stroke="#aaaaaa" stroke-width="5" stroke-linecap="round"/>
<line x1="302.5" y1="397.5" x2="597.5" y2="397.5" stroke="#aaaaaa" stroke-width="5" stroke-linecap="round"/>
<line x1="302.5" y1="497.5" x2="597.5" y2="497.5" stroke="#aaaaaa" stroke-width="5" stroke-linecap="round"/>
<line x1="302.5" y1="697.5" x2="597.5" y2="697.5" stroke="#aaaaaa" stroke-width="5" stroke-linecap="round"/>
<line x1="302.5" y1="797.5" x2="597.5" y2="797.5" stroke="#aaaaaa" stroke-width="5" stroke-linecap="round"/>
<line x1="402.5" y1="302.5" x2="402.5" y2="597.5" stroke="#aaaaaa" stroke-width="5" stroke-linecap="round"/>
<line x1="402.5" y1="602.5" x2="402.5" y2="897.5" stroke="#aaaaaa" stroke-width="5" stroke-linecap="round"/>
<line x1="702.5" y1="2.5" x2="702.5" y2="297.5" stroke="#aaaaaa" stroke-width="5" stroke-linecap="round"/>
<line x1="602.5" y1="97.5" x2="897.5" y2="97.5" stroke="#aaaaaa" stroke-width="5" stroke-linecap="round"/>
<line x1="602.5" y1="197.5" x2="897.5" y2="197.5" stroke="#aaaaaa" stroke-width="5" stroke-linecap="round"/>
<line x1="602.5" y1="397.5" x2="897.5" y2="397.5" stroke="#aaaaaa" stroke-width="5" stroke-linecap="round"/>
<line x1="602.5" y1="497.5" x2="897.5" y2="497.5" stroke="#aaaaaa" stroke-width="5" stroke-linecap="round"/>
<line x1="602.5" y1="697.5" x2="897.5" y2="697.5" stroke="#aaaaaa" stroke-width="5" stroke-linecap="round"/>
<line x1="602.5" y1="797.5" x2="897.5" y2="797.5" stroke="#aaaaaa" stroke-width="5" stroke-linecap="round"/>
<line x1="702.5" y1="302.5" x2="702.5" y2="597.5" stroke="#aaaaaa" stroke-width="5" stroke-linecap="round"/>
<line x1="702.5" y1="602.5" x2="702.5" y2="897.5" stroke="#aaaaaa" stroke-width="5" stroke-linecap="round"/>
<line x1="202.5" y1="602.5" x2="202.5" y2="897.5" stroke="#aaaaaa" stroke-width="5" stroke-linecap="round"/>
<line x1="402.5" y1="602.5" x2="402.5" y2="897.5" stroke="#aaaaaa" stroke-width="5" stroke-linecap="round"/>
<line x1="502.5" y1="602.5" x2="502.5" y2="897.5" stroke="#aaaaaa" stroke-width="5" stroke-linecap="round"/>
<line x1="702.5" y1="602.5" x2="702.5" y2="897.5" stroke="#aaaaaa" stroke-width="5" stroke-linecap="round"/>
<line x1="802.5" y1="602.5" x2="802.5" y2="897.5" stroke="#aaaaaa" stroke-width="5" stroke-linecap="round"/>
</svg>
